<?xml version="1.0" encoding="UTF-8" standalone="no"?><!-- Generator: Gravit.io --><svg xmlns="http://www.w3.org/2000/svg" xmlns:xlink="http://www.w3.org/1999/xlink" style="isolation:isolate" viewBox="0 0 250 250" width="250pt" height="250pt"><defs><clipPath id="_clipPath_0ZA9Ht4mP1CwyDkJp0TLIc4Kn7SJQn1N"><rect width="250" height="250"/></clipPath></defs><g clip-path="url(#_clipPath_0ZA9Ht4mP1CwyDkJp0TLIc4Kn7SJQn1N)"><g><path d=" M 125 35.714 Q 96.54 35.714 71.777 45.41 Q 47.015 55.106 32.436 71.568 Q 17.857 88.03 17.857 107.143 Q 17.857 122.768 27.832 136.928 Q 37.807 151.088 55.943 161.412 L 68.08 168.387 L 64.314 181.78 Q 60.965 194.475 54.548 205.776 Q 75.753 196.987 92.913 181.92 L 98.912 176.618 L 106.864 177.455 Q 116.49 178.571 125 178.571 Q 153.46 178.571 178.223 168.876 Q 202.985 159.18 217.564 142.718 Q 232.143 126.256 232.143 107.143 Q 232.143 88.03 217.564 71.568 Q 202.985 55.106 178.223 45.41 Q 153.46 35.714 125 35.714 Z  M 250 107.143 Q 250 131.417 233.259 151.995 Q 216.518 172.573 187.779 184.501 Q 159.04 196.429 125 196.429 Q 115.234 196.429 104.771 195.313 Q 77.148 219.727 40.597 229.074 Q 33.761 231.027 24.693 232.143 L 23.996 232.143 Q 21.903 232.143 20.229 230.678 Q 18.555 229.213 17.997 226.842 L 17.997 226.702 Q 17.578 226.144 17.927 225.028 Q 18.276 223.912 18.206 223.633 Q 18.136 223.354 18.834 222.307 L 19.671 221.052 Q 19.671 221.052 20.647 219.866 Q 21.624 218.68 21.763 218.61 Q 22.74 217.494 26.088 213.797 Q 29.436 210.1 30.901 208.496 Q 32.366 206.892 35.226 202.985 Q 38.086 199.079 39.76 195.871 Q 41.434 192.662 43.527 187.64 Q 45.619 182.617 47.154 177.037 Q 25.251 164.621 12.626 146.345 Q 0 128.069 0 107.143 Q 0 82.868 16.741 62.291 Q 33.482 41.713 62.221 29.785 Q 90.96 17.857 125 17.857 Q 159.04 17.857 187.779 29.785 Q 216.518 41.713 233.259 62.291 Q 250 82.868 250 107.143 Z " fill="rgb(255,255,255)"/></g></g></svg>