<?xml version="1.0" encoding="UTF-8" standalone="no"?><!-- Generator: Gravit.io --><svg xmlns="http://www.w3.org/2000/svg" xmlns:xlink="http://www.w3.org/1999/xlink" style="isolation:isolate" viewBox="0 0 250 250" width="250pt" height="250pt"><defs><clipPath id="_clipPath_YFcRHKKuctsmgoQ8DuAeBauUkbHra2HY"><rect width="250" height="250"/></clipPath></defs><g clip-path="url(#_clipPath_YFcRHKKuctsmgoQ8DuAeBauUkbHra2HY)"><g><path d=" M 115.153 224.805 C 109.773 218.775 96.337 207.02 85.296 198.682 C 52.584 173.978 48.131 170.403 34.849 158.173 C 10.363 135.626 -0.036 112.974 0 82.259 C 0.017 67.265 1.039 61.489 5.238 52.651 C 12.362 37.656 22.856 26.514 36.272 19.7 C 45.774 14.873 50.46 12.729 66.328 12.641 C 82.927 12.55 86.421 14.485 96.185 19.849 C 108.07 26.378 120.303 40.332 122.831 50.244 L 124.393 56.366 L 128.244 47.934 C 150.008 0.289 219.494 1.002 243.675 49.119 C 251.346 64.383 252.188 96.975 245.386 115.335 C 236.513 139.284 219.847 157.542 181.321 185.521 C 156.055 203.87 127.46 231.632 125.469 235.532 C 123.158 240.058 125.359 236.241 115.153 224.805 Z " fill="rgb(255,255,255)"/></g></g></svg>