<?xml version="1.0" encoding="UTF-8" standalone="no"?><!-- Generator: Gravit.io --><svg xmlns="http://www.w3.org/2000/svg" xmlns:xlink="http://www.w3.org/1999/xlink" style="isolation:isolate" viewBox="0 0 851 315" width="851pt" height="315pt"><defs><clipPath id="_clipPath_f9OkBPKTlltMZaVDSQeitUTmHyxlxZKK"><rect width="851" height="315"/></clipPath></defs><g clip-path="url(#_clipPath_f9OkBPKTlltMZaVDSQeitUTmHyxlxZKK)"><g style="isolation:isolate"><g style="isolation:isolate"><path d=" M 97.815 100.463 L 68.94 129.332 L 35.816 129.332 C 31.513 129.332 28.027 132.818 28.027 137.121 L 28.027 183.856 C 28.027 188.157 31.513 191.646 35.816 191.646 L 68.94 191.646 L 97.815 220.514 C 102.693 225.392 111.112 221.965 111.112 215.007 L 111.112 105.971 C 111.112 99.006 102.686 95.592 97.815 100.463 Z  M 173.539 83.885 C 169.914 81.507 165.042 82.509 162.663 86.141 C 160.281 89.766 161.294 94.638 164.919 97.017 C 186.427 111.131 199.263 134.859 199.263 160.492 C 199.263 186.125 186.427 209.853 164.919 223.968 C 161.294 226.343 160.281 231.218 162.663 234.84 C 164.948 238.316 169.781 239.565 173.539 237.096 C 199.477 220.07 214.968 191.428 214.968 160.489 C 214.968 129.55 199.477 100.911 173.539 83.885 Z  M 183.811 160.489 C 183.811 139.87 173.406 120.913 155.974 109.781 C 152.343 107.464 147.526 108.542 145.225 112.202 C 142.924 115.863 143.998 120.709 147.63 123.029 C 160.531 131.27 168.232 145.271 168.232 160.489 C 168.232 175.707 160.531 189.708 147.63 197.948 C 143.998 200.266 142.924 205.111 145.225 208.775 C 147.338 212.138 152.08 213.689 155.974 211.196 C 173.406 200.064 183.811 181.111 183.811 160.489 Z  M 137.799 135.541 C 134.041 133.486 129.3 134.84 127.216 138.608 C 125.142 142.376 126.515 147.111 130.283 149.191 C 134.473 151.492 137.076 155.825 137.076 160.489 C 137.076 165.156 134.473 169.485 130.286 171.786 C 126.518 173.867 125.145 178.602 127.219 182.37 C 129.306 186.154 134.051 187.498 137.803 185.437 C 146.965 180.39 152.657 170.832 152.657 160.486 C 152.657 150.139 146.965 140.584 137.799 135.541 Z " fill="rgb(253,44,84)"/><path d=" M 90.337 94.481 L 61.462 123.35 L 28.339 123.35 C 24.035 123.35 20.55 126.836 20.55 131.139 L 20.55 177.874 C 20.55 182.175 24.035 185.664 28.339 185.664 L 61.462 185.664 L 90.337 214.532 C 95.215 219.41 103.634 215.983 103.634 209.025 L 103.634 99.989 C 103.634 93.024 95.209 89.61 90.337 94.481 Z  M 166.061 77.903 C 162.436 75.524 157.565 76.527 155.186 80.159 C 152.803 83.784 153.816 88.656 157.441 91.035 C 178.949 105.149 191.785 128.877 191.785 154.51 C 191.785 180.143 178.949 203.871 157.441 217.985 C 153.816 220.361 152.803 225.236 155.186 228.858 C 157.47 232.334 162.303 233.583 166.061 231.113 C 191.999 214.088 207.49 185.446 207.49 154.507 C 207.49 123.567 191.999 94.929 166.061 77.903 Z  M 176.333 154.507 C 176.333 133.888 165.928 114.931 148.497 103.799 C 144.865 101.482 140.049 102.559 137.748 106.22 C 135.447 109.881 136.521 114.727 140.152 117.047 C 153.053 125.288 160.755 139.289 160.755 154.507 C 160.755 169.725 153.053 183.726 140.152 191.966 C 136.521 194.284 135.447 199.129 137.748 202.793 C 139.86 206.156 144.602 207.707 148.497 205.214 C 165.928 194.082 176.333 175.129 176.333 154.507 Z  M 130.322 129.559 C 126.564 127.504 121.822 128.858 119.738 132.626 C 117.664 136.394 119.037 141.129 122.805 143.209 C 126.995 145.51 129.598 149.843 129.598 154.507 C 129.598 159.174 126.995 163.503 122.809 165.804 C 119.041 167.885 117.668 172.62 119.742 176.388 C 121.828 180.172 126.573 181.516 130.325 179.455 C 139.487 174.408 145.18 164.85 145.18 154.504 C 145.18 144.157 139.487 134.602 130.322 129.559 Z " fill="rgb(36,245,239)"/><path d=" M 93.328 97.472 L 64.453 126.341 L 31.33 126.341 C 27.026 126.341 23.541 129.827 23.541 134.13 L 23.541 180.865 C 23.541 185.166 27.026 188.655 31.33 188.655 L 64.453 188.655 L 93.328 217.523 C 98.206 222.401 106.625 218.974 106.625 212.016 L 106.625 102.98 C 106.625 96.015 98.2 92.601 93.328 97.472 Z  M 169.052 80.894 C 165.427 78.515 160.556 79.518 158.177 83.15 C 155.794 86.775 156.807 91.647 160.432 94.026 C 181.94 108.14 194.776 131.868 194.776 157.501 C 194.776 183.134 181.94 206.862 160.432 220.976 C 156.807 223.352 155.794 228.227 158.177 231.849 C 160.461 235.325 165.294 236.574 169.052 234.105 C 194.99 217.079 210.481 188.437 210.481 157.498 C 210.481 126.559 194.99 97.92 169.052 80.894 Z  M 179.324 157.498 C 179.324 136.879 168.919 117.922 151.488 106.79 C 147.856 104.473 143.04 105.55 140.739 109.211 C 138.438 112.872 139.512 117.718 143.144 120.038 C 156.044 128.279 163.746 142.28 163.746 157.498 C 163.746 172.716 156.044 186.717 143.144 194.957 C 139.512 197.275 138.438 202.12 140.739 205.784 C 142.851 209.147 147.593 210.698 151.488 208.205 C 168.919 197.073 179.324 178.12 179.324 157.498 Z  M 133.313 132.55 C 129.555 130.495 124.813 131.849 122.729 135.617 C 120.655 139.385 122.028 144.12 125.796 146.2 C 129.986 148.501 132.589 152.834 132.589 157.498 C 132.589 162.165 129.986 166.494 125.8 168.795 C 122.032 170.876 120.659 175.611 122.733 179.379 C 124.819 183.163 129.564 184.507 133.316 182.446 C 142.478 177.399 148.171 167.841 148.171 157.495 C 148.171 147.148 142.478 137.593 133.313 132.55 Z " fill="rgb(255,255,255)"/></g><g style="isolation:isolate"><path d=" M 274.672 205.542 L 274.672 205.542 Q 264.11 205.542 255.62 201.264 L 255.62 201.264 L 255.62 201.264 Q 247.13 196.985 241.782 188.963 L 241.782 188.963 L 252.879 178.268 L 252.879 178.268 Q 257.291 183.482 263.575 186.824 L 263.575 186.824 L 263.575 186.824 Q 269.859 190.167 275.34 190.167 L 275.34 190.167 L 275.34 190.167 Q 281.49 190.167 285.234 187.359 L 285.234 187.359 L 285.234 187.359 Q 288.977 184.551 288.977 180.006 L 288.977 180.006 L 288.977 180.006 Q 288.977 176.663 287.774 174.524 L 287.774 174.524 L 287.774 174.524 Q 286.571 172.385 283.228 170.179 L 283.228 170.179 L 283.228 170.179 Q 279.886 167.973 272.265 164.229 L 272.265 164.229 L 272.265 164.229 Q 262.238 159.283 256.489 155.004 L 256.489 155.004 L 256.489 155.004 Q 250.74 150.726 247.999 145.712 L 247.999 145.712 L 247.999 145.712 Q 245.258 140.699 245.258 134.014 L 245.258 134.014 L 245.258 134.014 Q 245.258 126.661 249.136 121.045 L 249.136 121.045 L 249.136 121.045 Q 253.013 115.43 260.099 112.355 L 260.099 112.355 L 260.099 112.355 Q 267.185 109.28 276.41 109.28 L 276.41 109.28 L 276.41 109.28 Q 286.571 109.28 294.392 113.157 L 294.392 113.157 L 294.392 113.157 Q 302.213 117.034 305.823 123.853 L 305.823 123.853 L 293.657 132.944 L 293.657 132.944 Q 286.972 124.655 277.212 124.655 L 277.212 124.655 L 277.212 124.655 Q 271.062 124.655 267.719 127.062 L 267.719 127.062 L 267.719 127.062 Q 264.377 129.468 264.377 133.88 L 264.377 133.88 L 264.377 133.88 Q 264.377 136.554 266.048 138.693 L 266.048 138.693 L 266.048 138.693 Q 267.719 140.832 272.131 143.373 L 272.131 143.373 L 272.131 143.373 Q 276.543 145.913 285.367 150.058 L 285.367 150.058 L 285.367 150.058 Q 293.924 154.068 298.804 158.079 L 298.804 158.079 L 298.804 158.079 Q 303.684 162.09 305.823 167.037 L 305.823 167.037 L 305.823 167.037 Q 307.962 171.984 307.962 178.802 L 307.962 178.802 L 307.962 178.802 Q 307.962 186.824 303.885 192.907 L 303.885 192.907 L 303.885 192.907 Q 299.807 198.991 292.253 202.266 L 292.253 202.266 L 292.253 202.266 Q 284.699 205.542 274.672 205.542 L 274.672 205.542 Z " fill="rgb(255,255,255)"/><path d=" M 346.467 201.085 L 346.467 201.085 Q 330.29 201.085 321.198 191.86 L 321.198 191.86 L 321.198 191.86 Q 312.107 182.635 312.107 166.324 L 312.107 166.324 L 312.107 166.324 Q 312.107 150.013 321.198 140.788 L 321.198 140.788 L 321.198 140.788 Q 330.29 131.563 346.467 131.563 L 346.467 131.563 L 346.467 131.563 Q 362.644 131.563 371.803 140.788 L 371.803 140.788 L 371.803 140.788 Q 380.961 150.013 380.961 166.324 L 380.961 166.324 L 380.961 166.324 Q 380.961 182.635 371.803 191.86 L 371.803 191.86 L 371.803 191.86 Q 362.644 201.085 346.467 201.085 L 346.467 201.085 Z  M 350.344 192.841 L 350.344 192.841 Q 358.5 192.841 363.179 186.958 L 363.179 186.958 L 363.179 186.958 Q 367.859 181.075 367.859 170.781 L 367.859 170.781 L 367.859 170.781 Q 367.859 160.486 363.179 154.603 L 363.179 154.603 L 363.179 154.603 Q 358.5 148.721 350.344 148.721 L 350.344 148.721 L 350.344 148.721 Q 342.189 148.721 337.576 154.603 L 337.576 154.603 L 337.576 154.603 Q 332.964 160.486 332.964 170.781 L 332.964 170.781 L 332.964 170.781 Q 332.964 181.075 337.576 186.958 L 337.576 186.958 L 337.576 186.958 Q 342.189 192.841 350.344 192.841 L 350.344 192.841 Z " fill-rule="evenodd" fill="rgb(36,245,239)"/><path d=" M 355.38 209.998 L 355.38 209.998 Q 339.203 209.998 330.111 200.773 L 330.111 200.773 L 330.111 200.773 Q 321.02 191.548 321.02 175.237 L 321.02 175.237 L 321.02 175.237 Q 321.02 158.926 330.111 149.701 L 330.111 149.701 L 330.111 149.701 Q 339.203 140.476 355.38 140.476 L 355.38 140.476 L 355.38 140.476 Q 371.558 140.476 380.716 149.701 L 380.716 149.701 L 380.716 149.701 Q 389.874 158.926 389.874 175.237 L 389.874 175.237 L 389.874 175.237 Q 389.874 191.548 380.716 200.773 L 380.716 200.773 L 380.716 200.773 Q 371.558 209.998 355.38 209.998 L 355.38 209.998 Z  M 350.344 192.841 L 350.344 192.841 Q 358.5 192.841 363.179 186.958 L 363.179 186.958 L 363.179 186.958 Q 367.859 181.075 367.859 170.781 L 367.859 170.781 L 367.859 170.781 Q 367.859 160.486 363.179 154.603 L 363.179 154.603 L 363.179 154.603 Q 358.5 148.721 350.344 148.721 L 350.344 148.721 L 350.344 148.721 Q 342.189 148.721 337.576 154.603 L 337.576 154.603 L 337.576 154.603 Q 332.964 160.486 332.964 170.781 L 332.964 170.781 L 332.964 170.781 Q 332.964 181.075 337.576 186.958 L 337.576 186.958 L 337.576 186.958 Q 342.189 192.841 350.344 192.841 L 350.344 192.841 Z " fill-rule="evenodd" fill="rgb(253,44,84)"/><path d=" M 350.344 205.542 L 350.344 205.542 Q 334.167 205.542 325.076 196.317 L 325.076 196.317 L 325.076 196.317 Q 315.984 187.092 315.984 170.781 L 315.984 170.781 L 315.984 170.781 Q 315.984 154.47 325.076 145.244 L 325.076 145.244 L 325.076 145.244 Q 334.167 136.019 350.344 136.019 L 350.344 136.019 L 350.344 136.019 Q 366.522 136.019 375.68 145.244 L 375.68 145.244 L 375.68 145.244 Q 384.838 154.47 384.838 170.781 L 384.838 170.781 L 384.838 170.781 Q 384.838 187.092 375.68 196.317 L 375.68 196.317 L 375.68 196.317 Q 366.522 205.542 350.344 205.542 L 350.344 205.542 Z  M 350.344 192.841 L 350.344 192.841 Q 358.5 192.841 363.179 186.958 L 363.179 186.958 L 363.179 186.958 Q 367.859 181.075 367.859 170.781 L 367.859 170.781 L 367.859 170.781 Q 367.859 160.486 363.179 154.603 L 363.179 154.603 L 363.179 154.603 Q 358.5 148.721 350.344 148.721 L 350.344 148.721 L 350.344 148.721 Q 342.189 148.721 337.576 154.603 L 337.576 154.603 L 337.576 154.603 Q 332.964 160.486 332.964 170.781 L 332.964 170.781 L 332.964 170.781 Q 332.964 181.075 337.576 186.958 L 337.576 186.958 L 337.576 186.958 Q 342.189 192.841 350.344 192.841 L 350.344 192.841 Z " fill-rule="evenodd" fill="rgb(255,255,255)"/><path d=" M 418.931 205.542 L 418.931 205.542 Q 407.433 205.542 401.483 197.787 L 401.483 197.787 L 401.483 197.787 Q 395.534 190.033 395.534 175.059 L 395.534 175.059 L 395.534 137.356 L 412.647 137.356 L 412.647 175.193 L 412.647 175.193 Q 412.647 183.749 415.455 187.76 L 415.455 187.76 L 415.455 187.76 Q 418.262 191.771 424.145 191.771 L 424.145 191.771 L 424.145 191.771 Q 431.231 191.771 435.777 186.356 L 435.777 186.356 L 435.777 186.356 Q 440.322 180.942 440.322 172.92 L 440.322 172.92 L 440.322 137.356 L 457.436 137.356 L 457.436 187.225 L 457.436 187.225 Q 457.436 194.044 458.505 204.205 L 458.505 204.205 L 442.328 204.205 L 442.328 204.205 Q 441.258 198.189 441.125 192.439 L 441.125 192.439 L 440.857 192.439 L 440.857 192.439 Q 438.451 198.456 432.501 201.999 L 432.501 201.999 L 432.501 201.999 Q 426.552 205.542 418.931 205.542 L 418.931 205.542 Z " fill="rgb(255,255,255)"/><path d=" M 470.404 204.205 L 470.404 155.004 L 470.404 155.004 Q 470.404 142.838 469.869 137.356 L 469.869 137.356 L 485.913 137.356 L 485.913 137.356 Q 486.582 142.972 486.582 148.988 L 486.582 148.988 L 486.983 148.988 L 486.983 148.988 Q 489.389 143.105 495.472 139.562 L 495.472 139.562 L 495.472 139.562 Q 501.556 136.019 509.043 136.019 L 509.043 136.019 L 509.043 136.019 Q 520.541 136.019 526.423 143.774 L 526.423 143.774 L 526.423 143.774 Q 532.306 151.528 532.306 166.636 L 532.306 166.636 L 532.306 204.205 L 515.326 204.205 L 515.326 166.502 L 515.326 166.502 Q 515.326 157.812 512.519 153.801 L 512.519 153.801 L 512.519 153.801 Q 509.711 149.79 503.561 149.79 L 503.561 149.79 L 503.561 149.79 Q 496.475 149.79 491.996 154.804 L 491.996 154.804 L 491.996 154.804 Q 487.517 159.817 487.517 167.706 L 487.517 167.706 L 487.517 204.205 L 470.404 204.205 Z " fill="rgb(255,255,255)"/><path d=" M 571.212 205.542 L 571.212 205.542 Q 558.11 205.542 550.556 195.983 L 550.556 195.983 L 550.556 195.983 Q 543.002 186.423 543.002 169.711 L 543.002 169.711 L 543.002 169.711 Q 543.002 159.55 546.478 151.929 L 546.478 151.929 L 546.478 151.929 Q 549.954 144.309 556.438 140.164 L 556.438 140.164 L 556.438 140.164 Q 562.923 136.019 571.613 136.019 L 571.613 136.019 L 571.613 136.019 Q 577.496 136.019 581.974 138.025 L 581.974 138.025 L 581.974 138.025 Q 586.453 140.03 589.796 144.175 L 589.796 144.175 L 590.063 144.175 L 590.063 105.002 L 607.043 105.002 L 607.043 186.423 L 607.043 186.423 Q 607.043 200.328 607.444 204.205 L 607.444 204.205 L 591.4 204.205 L 591.4 204.205 Q 591.266 201.932 591.266 195.381 L 591.266 195.381 L 590.999 195.381 L 590.999 195.381 Q 587.924 199.927 582.509 202.734 L 582.509 202.734 L 582.509 202.734 Q 577.095 205.542 571.212 205.542 L 571.212 205.542 Z  M 574.554 192.439 L 574.554 192.439 Q 581.64 192.439 585.852 188.362 L 585.852 188.362 L 585.852 188.362 Q 590.063 184.284 590.063 177.599 L 590.063 177.599 L 590.063 163.828 L 590.063 163.828 Q 590.063 157.277 585.651 152.999 L 585.651 152.999 L 585.651 152.999 Q 581.239 148.721 574.554 148.721 L 574.554 148.721 L 574.554 148.721 Q 567.468 148.721 563.725 154.202 L 563.725 154.202 L 563.725 154.202 Q 559.981 159.684 559.981 169.978 L 559.981 169.978 L 559.981 169.978 Q 559.981 180.808 563.725 186.624 L 563.725 186.624 L 563.725 186.624 Q 567.468 192.439 574.554 192.439 L 574.554 192.439 Z " fill-rule="evenodd" fill="rgb(255,255,255)"/><path d=" M 643.809 204.205 L 643.809 124.789 L 616 124.789 L 616 110.617 L 690.871 110.617 L 690.871 124.789 L 663.062 124.789 L 663.062 204.205 L 643.809 204.205 Z " fill="rgb(255,255,255)"/><path d=" M 737.69 176.863 C 738.169 175.085 738.333 173.01 738.333 170.781 L 738.333 170.781 L 738.333 170.781 Q 738.333 160.486 733.654 154.603 L 733.654 154.603 L 733.654 154.603 Q 728.974 148.721 720.819 148.721 L 720.819 148.721 L 720.819 148.721 Q 712.663 148.721 708.051 154.603 L 708.051 154.603 L 708.051 154.603 Q 703.438 160.486 703.438 170.781 L 703.438 170.781 L 703.438 170.781 Q 703.438 181.075 708.051 186.958 L 708.051 186.958 L 708.051 186.958 Q 712.663 192.841 720.819 192.841 L 720.819 192.841 L 720.819 192.841 Q 728.974 192.841 733.654 186.958 L 733.654 186.958 L 733.654 186.958 Q 736.813 182.986 737.69 176.863" fill="none"/><path d=" M 725.275 209.998 L 725.275 209.998 Q 709.098 209.998 700.007 200.773 L 700.007 200.773 L 700.007 200.773 Q 690.915 191.548 690.915 175.237 L 690.915 175.237 L 690.915 175.237 Q 690.915 158.926 700.007 149.701 L 700.007 149.701 L 700.007 149.701 Q 709.098 140.476 725.275 140.476 L 725.275 140.476 L 725.275 140.476 Q 741.453 140.476 750.611 149.701 L 750.611 149.701 L 750.611 149.701 Q 759.769 158.926 759.769 175.237 L 759.769 175.237 L 759.769 175.237 Q 759.769 191.548 750.611 200.773 L 750.611 200.773 L 750.611 200.773 Q 741.453 209.998 725.275 209.998 L 725.275 209.998 Z  M 737.69 176.863 C 738.169 175.085 738.333 173.01 738.333 170.781 L 738.333 170.781 L 738.333 170.781 Q 738.333 160.486 733.654 154.603 L 733.654 154.603 L 733.654 154.603 Q 728.974 148.721 720.819 148.721 L 720.819 148.721 L 720.819 148.721 Q 712.663 148.721 708.051 154.603 L 708.051 154.603 L 708.051 154.603 Q 703.438 160.486 703.438 170.781 L 703.438 170.781 L 703.438 170.781 Q 703.438 181.075 708.051 186.958 L 708.051 186.958 L 708.051 186.958 Q 712.663 192.841 720.819 192.841 L 720.819 192.841 L 720.819 192.841 Q 728.974 192.841 733.654 186.958 L 733.654 186.958 L 733.654 186.958 Q 736.813 182.986 737.69 176.863 Z " fill-rule="evenodd" fill="rgb(253,44,84)"/><path d=" M 716.362 201.085 L 716.362 201.085 Q 700.185 201.085 691.094 191.86 L 691.094 191.86 L 691.094 191.86 Q 682.002 182.635 682.002 166.324 L 682.002 166.324 L 682.002 166.324 Q 682.002 150.013 691.094 140.788 L 691.094 140.788 L 691.094 140.788 Q 700.185 131.563 716.362 131.563 L 716.362 131.563 L 716.362 131.563 Q 732.54 131.563 741.698 140.788 L 741.698 140.788 L 741.698 140.788 Q 750.856 150.013 750.856 166.324 L 750.856 166.324 L 750.856 166.324 Q 750.856 182.635 741.698 191.86 L 741.698 191.86 L 741.698 191.86 Q 732.54 201.085 716.362 201.085 L 716.362 201.085 Z  M 737.69 176.863 C 738.169 175.085 738.333 173.01 738.333 170.781 L 738.333 170.781 L 738.333 170.781 Q 738.333 160.486 733.654 154.603 L 733.654 154.603 L 733.654 154.603 Q 728.974 148.721 720.819 148.721 L 720.819 148.721 L 720.819 148.721 Q 712.663 148.721 708.051 154.603 L 708.051 154.603 L 708.051 154.603 Q 703.438 160.486 703.438 170.781 L 703.438 170.781 L 703.438 170.781 Q 703.438 181.075 708.051 186.958 L 708.051 186.958 L 708.051 186.958 Q 712.663 192.841 720.819 192.841 L 720.819 192.841 L 720.819 192.841 Q 728.974 192.841 733.654 186.958 L 733.654 186.958 L 733.654 186.958 Q 736.813 182.986 737.69 176.863 Z " fill-rule="evenodd" fill="rgb(36,245,239)"/><path d=" M 720.819 205.542 L 720.819 205.542 Q 704.642 205.542 695.55 196.317 L 695.55 196.317 L 695.55 196.317 Q 686.459 187.092 686.459 170.781 L 686.459 170.781 L 686.459 170.781 Q 686.459 154.47 695.55 145.244 L 695.55 145.244 L 695.55 145.244 Q 704.642 136.019 720.819 136.019 L 720.819 136.019 L 720.819 136.019 Q 736.996 136.019 746.155 145.244 L 746.155 145.244 L 746.155 145.244 Q 755.313 154.47 755.313 170.781 L 755.313 170.781 L 755.313 170.781 Q 755.313 187.092 746.155 196.317 L 746.155 196.317 L 746.155 196.317 Q 736.996 205.542 720.819 205.542 L 720.819 205.542 Z  M 737.69 176.863 C 738.169 175.085 738.333 173.01 738.333 170.781 L 738.333 170.781 L 738.333 170.781 Q 738.333 160.486 733.654 154.603 L 733.654 154.603 L 733.654 154.603 Q 728.974 148.721 720.819 148.721 L 720.819 148.721 L 720.819 148.721 Q 712.663 148.721 708.051 154.603 L 708.051 154.603 L 708.051 154.603 Q 703.438 160.486 703.438 170.781 L 703.438 170.781 L 703.438 170.781 Q 703.438 181.075 708.051 186.958 L 708.051 186.958 L 708.051 186.958 Q 712.663 192.841 720.819 192.841 L 720.819 192.841 L 720.819 192.841 Q 728.974 192.841 733.654 186.958 L 733.654 186.958 L 733.654 186.958 Q 736.813 182.986 737.69 176.863 Z " fill-rule="evenodd" fill="rgb(255,255,255)"/><path d=" M 830.45 204.205 L 811.198 204.205 L 791.411 173.053 L 783.389 180.942 L 783.389 204.205 L 766.276 204.205 L 766.276 105.002 L 783.389 105.002 L 783.389 160.486 L 806.92 137.356 L 827.91 137.356 L 803.176 161.555 L 830.45 204.205 Z " fill="rgb(255,255,255)"/></g></g></g></svg>