<?xml version="1.0" encoding="UTF-8" standalone="no"?><!-- Generator: Gravit.io --><svg xmlns="http://www.w3.org/2000/svg" xmlns:xlink="http://www.w3.org/1999/xlink" style="isolation:isolate" viewBox="0 0 250 250" width="250pt" height="250pt"><defs><clipPath id="_clipPath_xLQzA3OztizwfecossXyt0WY66wAiyoy"><rect width="250" height="250"/></clipPath></defs><g clip-path="url(#_clipPath_xLQzA3OztizwfecossXyt0WY66wAiyoy)"><g style="isolation:isolate"><g style="isolation:isolate"><path d=" M 47.027 220.258 L 47.027 220.258 Q 43.877 220.258 41.345 218.982 L 41.345 218.982 L 41.345 218.982 Q 38.813 217.706 37.218 215.314 L 37.218 215.314 L 40.528 212.124 L 40.528 212.124 Q 41.844 213.679 43.718 214.676 L 43.718 214.676 L 43.718 214.676 Q 45.592 215.673 47.226 215.673 L 47.226 215.673 L 47.226 215.673 Q 49.061 215.673 50.177 214.835 L 50.177 214.835 L 50.177 214.835 Q 51.294 213.998 51.294 212.642 L 51.294 212.642 L 51.294 212.642 Q 51.294 211.645 50.935 211.007 L 50.935 211.007 L 50.935 211.007 Q 50.576 210.369 49.579 209.712 L 49.579 209.712 L 49.579 209.712 Q 48.582 209.054 46.309 207.937 L 46.309 207.937 L 46.309 207.937 Q 43.319 206.462 41.604 205.186 L 41.604 205.186 L 41.604 205.186 Q 39.89 203.91 39.072 202.415 L 39.072 202.415 L 39.072 202.415 Q 38.255 200.919 38.255 198.926 L 38.255 198.926 L 38.255 198.926 Q 38.255 196.733 39.411 195.058 L 39.411 195.058 L 39.411 195.058 Q 40.568 193.383 42.681 192.466 L 42.681 192.466 L 42.681 192.466 Q 44.794 191.549 47.545 191.549 L 47.545 191.549 L 47.545 191.549 Q 50.576 191.549 52.908 192.705 L 52.908 192.705 L 52.908 192.705 Q 55.241 193.862 56.318 195.895 L 56.318 195.895 L 52.689 198.607 L 52.689 198.607 Q 50.695 196.135 47.785 196.135 L 47.785 196.135 L 47.785 196.135 Q 45.95 196.135 44.954 196.852 L 44.954 196.852 L 44.954 196.852 Q 43.957 197.57 43.957 198.886 L 43.957 198.886 L 43.957 198.886 Q 43.957 199.683 44.455 200.321 L 44.455 200.321 L 44.455 200.321 Q 44.954 200.959 46.269 201.717 L 46.269 201.717 L 46.269 201.717 Q 47.585 202.475 50.217 203.711 L 50.217 203.711 L 50.217 203.711 Q 52.769 204.907 54.224 206.103 L 54.224 206.103 L 54.224 206.103 Q 55.68 207.299 56.318 208.775 L 56.318 208.775 L 56.318 208.775 Q 56.956 210.25 56.956 212.283 L 56.956 212.283 L 56.956 212.283 Q 56.956 214.676 55.739 216.49 L 55.739 216.49 L 55.739 216.49 Q 54.523 218.304 52.27 219.281 L 52.27 219.281 L 52.27 219.281 Q 50.018 220.258 47.027 220.258 L 47.027 220.258 Z " fill="rgb(0,0,0)"/><path d=" M 68.439 218.929 L 68.439 218.929 Q 63.615 218.929 60.903 216.178 L 60.903 216.178 L 60.903 216.178 Q 58.192 213.426 58.192 208.562 L 58.192 208.562 L 58.192 208.562 Q 58.192 203.697 60.903 200.946 L 60.903 200.946 L 60.903 200.946 Q 63.615 198.195 68.439 198.195 L 68.439 198.195 L 68.439 198.195 Q 73.264 198.195 75.995 200.946 L 75.995 200.946 L 75.995 200.946 Q 78.727 203.697 78.727 208.562 L 78.727 208.562 L 78.727 208.562 Q 78.727 213.426 75.995 216.178 L 75.995 216.178 L 75.995 216.178 Q 73.264 218.929 68.439 218.929 L 68.439 218.929 Z  M 69.596 216.47 L 69.596 216.47 Q 72.028 216.47 73.423 214.716 L 73.423 214.716 L 73.423 214.716 Q 74.819 212.961 74.819 209.891 L 74.819 209.891 L 74.819 209.891 Q 74.819 206.821 73.423 205.066 L 73.423 205.066 L 73.423 205.066 Q 72.028 203.312 69.596 203.312 L 69.596 203.312 L 69.596 203.312 Q 67.163 203.312 65.788 205.066 L 65.788 205.066 L 65.788 205.066 Q 64.412 206.821 64.412 209.891 L 64.412 209.891 L 64.412 209.891 Q 64.412 212.961 65.788 214.716 L 65.788 214.716 L 65.788 214.716 Q 67.163 216.47 69.596 216.47 L 69.596 216.47 Z " fill-rule="evenodd" fill="rgb(36,245,239)"/><path d=" M 71.097 221.587 L 71.097 221.587 Q 66.273 221.587 63.561 218.836 L 63.561 218.836 L 63.561 218.836 Q 60.85 216.085 60.85 211.22 L 60.85 211.22 L 60.85 211.22 Q 60.85 206.356 63.561 203.604 L 63.561 203.604 L 63.561 203.604 Q 66.273 200.853 71.097 200.853 L 71.097 200.853 L 71.097 200.853 Q 75.922 200.853 78.654 203.604 L 78.654 203.604 L 78.654 203.604 Q 81.385 206.356 81.385 211.22 L 81.385 211.22 L 81.385 211.22 Q 81.385 216.085 78.654 218.836 L 78.654 218.836 L 78.654 218.836 Q 75.922 221.587 71.097 221.587 L 71.097 221.587 Z  M 69.596 216.47 L 69.596 216.47 Q 72.028 216.47 73.423 214.716 L 73.423 214.716 L 73.423 214.716 Q 74.819 212.961 74.819 209.891 L 74.819 209.891 L 74.819 209.891 Q 74.819 206.821 73.423 205.066 L 73.423 205.066 L 73.423 205.066 Q 72.028 203.312 69.596 203.312 L 69.596 203.312 L 69.596 203.312 Q 67.163 203.312 65.788 205.066 L 65.788 205.066 L 65.788 205.066 Q 64.412 206.821 64.412 209.891 L 64.412 209.891 L 64.412 209.891 Q 64.412 212.961 65.788 214.716 L 65.788 214.716 L 65.788 214.716 Q 67.163 216.47 69.596 216.47 L 69.596 216.47 Z " fill-rule="evenodd" fill="rgb(253,44,84)"/><path d=" M 69.596 220.258 L 69.596 220.258 Q 64.771 220.258 62.059 217.507 L 62.059 217.507 L 62.059 217.507 Q 59.348 214.756 59.348 209.891 L 59.348 209.891 L 59.348 209.891 Q 59.348 205.026 62.059 202.275 L 62.059 202.275 L 62.059 202.275 Q 64.771 199.524 69.596 199.524 L 69.596 199.524 L 69.596 199.524 Q 74.42 199.524 77.152 202.275 L 77.152 202.275 L 77.152 202.275 Q 79.883 205.026 79.883 209.891 L 79.883 209.891 L 79.883 209.891 Q 79.883 214.756 77.152 217.507 L 77.152 217.507 L 77.152 217.507 Q 74.42 220.258 69.596 220.258 L 69.596 220.258 Z  M 69.596 216.47 L 69.596 216.47 Q 72.028 216.47 73.423 214.716 L 73.423 214.716 L 73.423 214.716 Q 74.819 212.961 74.819 209.891 L 74.819 209.891 L 74.819 209.891 Q 74.819 206.821 73.423 205.066 L 73.423 205.066 L 73.423 205.066 Q 72.028 203.312 69.596 203.312 L 69.596 203.312 L 69.596 203.312 Q 67.163 203.312 65.788 205.066 L 65.788 205.066 L 65.788 205.066 Q 64.412 206.821 64.412 209.891 L 64.412 209.891 L 64.412 209.891 Q 64.412 212.961 65.788 214.716 L 65.788 214.716 L 65.788 214.716 Q 67.163 216.47 69.596 216.47 L 69.596 216.47 Z " fill-rule="evenodd" fill="rgb(0,0,0)"/><path d=" M 90.051 220.258 L 90.051 220.258 Q 86.622 220.258 84.847 217.945 L 84.847 217.945 L 84.847 217.945 Q 83.073 215.633 83.073 211.167 L 83.073 211.167 L 83.073 199.923 L 88.177 199.923 L 88.177 211.207 L 88.177 211.207 Q 88.177 213.759 89.014 214.955 L 89.014 214.955 L 89.014 214.955 Q 89.851 216.151 91.606 216.151 L 91.606 216.151 L 91.606 216.151 Q 93.719 216.151 95.075 214.536 L 95.075 214.536 L 95.075 214.536 Q 96.431 212.921 96.431 210.529 L 96.431 210.529 L 96.431 199.923 L 101.534 199.923 L 101.534 214.795 L 101.534 214.795 Q 101.534 216.829 101.853 219.859 L 101.853 219.859 L 97.029 219.859 L 97.029 219.859 Q 96.71 218.065 96.67 216.351 L 96.67 216.351 L 96.59 216.351 L 96.59 216.351 Q 95.872 218.145 94.098 219.201 L 94.098 219.201 L 94.098 219.201 Q 92.324 220.258 90.051 220.258 L 90.051 220.258 Z " fill="rgb(0,0,0)"/><path d=" M 105.402 219.859 L 105.402 205.186 L 105.402 205.186 Q 105.402 201.557 105.243 199.923 L 105.243 199.923 L 110.027 199.923 L 110.027 199.923 Q 110.227 201.597 110.227 203.392 L 110.227 203.392 L 110.346 203.392 L 110.346 203.392 Q 111.064 201.637 112.878 200.581 L 112.878 200.581 L 112.878 200.581 Q 114.693 199.524 116.926 199.524 L 116.926 199.524 L 116.926 199.524 Q 120.355 199.524 122.109 201.837 L 122.109 201.837 L 122.109 201.837 Q 123.864 204.149 123.864 208.655 L 123.864 208.655 L 123.864 219.859 L 118.8 219.859 L 118.8 208.615 L 118.8 208.615 Q 118.8 206.023 117.962 204.827 L 117.962 204.827 L 117.962 204.827 Q 117.125 203.631 115.291 203.631 L 115.291 203.631 L 115.291 203.631 Q 113.177 203.631 111.842 205.126 L 111.842 205.126 L 111.842 205.126 Q 110.506 206.621 110.506 208.974 L 110.506 208.974 L 110.506 219.859 L 105.402 219.859 Z " fill="rgb(0,0,0)"/><path d=" M 135.467 220.258 L 135.467 220.258 Q 131.559 220.258 129.306 217.407 L 129.306 217.407 L 129.306 217.407 Q 127.053 214.556 127.053 209.572 L 127.053 209.572 L 127.053 209.572 Q 127.053 206.542 128.09 204.269 L 128.09 204.269 L 128.09 204.269 Q 129.127 201.996 131.061 200.76 L 131.061 200.76 L 131.061 200.76 Q 132.995 199.524 135.586 199.524 L 135.586 199.524 L 135.586 199.524 Q 137.341 199.524 138.677 200.122 L 138.677 200.122 L 138.677 200.122 Q 140.012 200.72 141.009 201.956 L 141.009 201.956 L 141.089 201.956 L 141.089 190.273 L 146.153 190.273 L 146.153 214.556 L 146.153 214.556 Q 146.153 218.703 146.273 219.859 L 146.273 219.859 L 141.488 219.859 L 141.488 219.859 Q 141.448 219.182 141.448 217.228 L 141.448 217.228 L 141.368 217.228 L 141.368 217.228 Q 140.451 218.583 138.836 219.421 L 138.836 219.421 L 138.836 219.421 Q 137.221 220.258 135.467 220.258 L 135.467 220.258 Z  M 136.464 216.351 L 136.464 216.351 Q 138.577 216.351 139.833 215.134 L 139.833 215.134 L 139.833 215.134 Q 141.089 213.918 141.089 211.925 L 141.089 211.925 L 141.089 207.818 L 141.089 207.818 Q 141.089 205.864 139.773 204.588 L 139.773 204.588 L 139.773 204.588 Q 138.457 203.312 136.464 203.312 L 136.464 203.312 L 136.464 203.312 Q 134.35 203.312 133.234 204.947 L 133.234 204.947 L 133.234 204.947 Q 132.117 206.581 132.117 209.652 L 132.117 209.652 L 132.117 209.652 Q 132.117 212.882 133.234 214.616 L 133.234 214.616 L 133.234 214.616 Q 134.35 216.351 136.464 216.351 L 136.464 216.351 Z " fill-rule="evenodd" fill="rgb(0,0,0)"/><path d=" M 157.118 219.859 L 157.118 196.174 L 148.825 196.174 L 148.825 191.948 L 171.154 191.948 L 171.154 196.174 L 162.86 196.174 L 162.86 219.859 L 157.118 219.859 Z " fill="rgb(0,0,0)"/><path d=" M 185.117 211.705 C 185.26 211.175 185.309 210.556 185.309 209.891 L 185.309 209.891 L 185.309 209.891 Q 185.309 206.821 183.913 205.066 L 183.913 205.066 L 183.913 205.066 Q 182.518 203.312 180.085 203.312 L 180.085 203.312 L 180.085 203.312 Q 177.653 203.312 176.278 205.066 L 176.278 205.066 L 176.278 205.066 Q 174.902 206.821 174.902 209.891 L 174.902 209.891 L 174.902 209.891 Q 174.902 212.961 176.278 214.716 L 176.278 214.716 L 176.278 214.716 Q 177.653 216.47 180.085 216.47 L 180.085 216.47 L 180.085 216.47 Q 182.518 216.47 183.913 214.716 L 183.913 214.716 L 183.913 214.716 Q 184.856 213.531 185.117 211.705" fill="none"/><path d=" M 181.415 221.587 L 181.415 221.587 Q 176.59 221.587 173.878 218.836 L 173.878 218.836 L 173.878 218.836 Q 171.167 216.085 171.167 211.22 L 171.167 211.22 L 171.167 211.22 Q 171.167 206.356 173.878 203.604 L 173.878 203.604 L 173.878 203.604 Q 176.59 200.853 181.415 200.853 L 181.415 200.853 L 181.415 200.853 Q 186.239 200.853 188.971 203.604 L 188.971 203.604 L 188.971 203.604 Q 191.702 206.356 191.702 211.22 L 191.702 211.22 L 191.702 211.22 Q 191.702 216.085 188.971 218.836 L 188.971 218.836 L 188.971 218.836 Q 186.239 221.587 181.415 221.587 L 181.415 221.587 Z  M 185.117 211.705 C 185.26 211.175 185.309 210.556 185.309 209.891 L 185.309 209.891 L 185.309 209.891 Q 185.309 206.821 183.913 205.066 L 183.913 205.066 L 183.913 205.066 Q 182.518 203.312 180.085 203.312 L 180.085 203.312 L 180.085 203.312 Q 177.653 203.312 176.278 205.066 L 176.278 205.066 L 176.278 205.066 Q 174.902 206.821 174.902 209.891 L 174.902 209.891 L 174.902 209.891 Q 174.902 212.961 176.278 214.716 L 176.278 214.716 L 176.278 214.716 Q 177.653 216.47 180.085 216.47 L 180.085 216.47 L 180.085 216.47 Q 182.518 216.47 183.913 214.716 L 183.913 214.716 L 183.913 214.716 Q 184.856 213.531 185.117 211.705 Z " fill-rule="evenodd" fill="rgb(253,44,84)"/><path d=" M 178.756 218.929 L 178.756 218.929 Q 173.932 218.929 171.22 216.178 L 171.22 216.178 L 171.22 216.178 Q 168.509 213.426 168.509 208.562 L 168.509 208.562 L 168.509 208.562 Q 168.509 203.697 171.22 200.946 L 171.22 200.946 L 171.22 200.946 Q 173.932 198.195 178.756 198.195 L 178.756 198.195 L 178.756 198.195 Q 183.581 198.195 186.312 200.946 L 186.312 200.946 L 186.312 200.946 Q 189.044 203.697 189.044 208.562 L 189.044 208.562 L 189.044 208.562 Q 189.044 213.426 186.312 216.178 L 186.312 216.178 L 186.312 216.178 Q 183.581 218.929 178.756 218.929 L 178.756 218.929 Z  M 185.117 211.705 C 185.26 211.175 185.309 210.556 185.309 209.891 L 185.309 209.891 L 185.309 209.891 Q 185.309 206.821 183.913 205.066 L 183.913 205.066 L 183.913 205.066 Q 182.518 203.312 180.085 203.312 L 180.085 203.312 L 180.085 203.312 Q 177.653 203.312 176.278 205.066 L 176.278 205.066 L 176.278 205.066 Q 174.902 206.821 174.902 209.891 L 174.902 209.891 L 174.902 209.891 Q 174.902 212.961 176.278 214.716 L 176.278 214.716 L 176.278 214.716 Q 177.653 216.47 180.085 216.47 L 180.085 216.47 L 180.085 216.47 Q 182.518 216.47 183.913 214.716 L 183.913 214.716 L 183.913 214.716 Q 184.856 213.531 185.117 211.705 Z " fill-rule="evenodd" fill="rgb(36,245,239)"/><path d=" M 180.085 220.258 L 180.085 220.258 Q 175.261 220.258 172.549 217.507 L 172.549 217.507 L 172.549 217.507 Q 169.838 214.756 169.838 209.891 L 169.838 209.891 L 169.838 209.891 Q 169.838 205.026 172.549 202.275 L 172.549 202.275 L 172.549 202.275 Q 175.261 199.524 180.085 199.524 L 180.085 199.524 L 180.085 199.524 Q 184.91 199.524 187.642 202.275 L 187.642 202.275 L 187.642 202.275 Q 190.373 205.026 190.373 209.891 L 190.373 209.891 L 190.373 209.891 Q 190.373 214.756 187.642 217.507 L 187.642 217.507 L 187.642 217.507 Q 184.91 220.258 180.085 220.258 L 180.085 220.258 Z  M 185.117 211.705 C 185.26 211.175 185.309 210.556 185.309 209.891 L 185.309 209.891 L 185.309 209.891 Q 185.309 206.821 183.913 205.066 L 183.913 205.066 L 183.913 205.066 Q 182.518 203.312 180.085 203.312 L 180.085 203.312 L 180.085 203.312 Q 177.653 203.312 176.278 205.066 L 176.278 205.066 L 176.278 205.066 Q 174.902 206.821 174.902 209.891 L 174.902 209.891 L 174.902 209.891 Q 174.902 212.961 176.278 214.716 L 176.278 214.716 L 176.278 214.716 Q 177.653 216.47 180.085 216.47 L 180.085 216.47 L 180.085 216.47 Q 182.518 216.47 183.913 214.716 L 183.913 214.716 L 183.913 214.716 Q 184.856 213.531 185.117 211.705 Z " fill-rule="evenodd" fill="rgb(0,0,0)"/><path d=" M 212.782 219.859 L 207.04 219.859 L 201.139 210.569 L 198.746 212.921 L 198.746 219.859 L 193.642 219.859 L 193.642 190.273 L 198.746 190.273 L 198.746 206.821 L 205.764 199.923 L 212.024 199.923 L 204.648 207.14 L 212.782 219.859 Z " fill="rgb(0,0,0)"/></g><g style="isolation:isolate"><path d=" M 107.275 49.609 L 81.613 75.266 L 52.175 75.266 C 48.351 75.266 45.253 78.363 45.253 82.188 L 45.253 123.723 C 45.253 127.545 48.351 130.646 52.175 130.646 L 81.613 130.646 L 107.275 156.302 C 111.611 160.637 119.093 157.592 119.093 151.407 L 119.093 54.504 C 119.093 48.314 111.605 45.28 107.275 49.609 Z  M 174.574 34.876 C 171.352 32.761 167.023 33.653 164.908 36.88 C 162.791 40.102 163.691 44.432 166.913 46.546 C 186.028 59.09 197.435 80.178 197.435 102.959 C 197.435 125.739 186.028 146.827 166.913 159.371 C 163.691 161.483 162.791 165.815 164.908 169.034 C 166.939 172.123 171.234 173.234 174.574 171.039 C 197.626 155.907 211.393 130.452 211.393 102.956 C 211.393 75.459 197.626 50.007 174.574 34.876 Z  M 183.703 102.956 C 183.703 84.631 174.456 67.784 158.964 57.89 C 155.736 55.831 151.456 56.788 149.41 60.042 C 147.365 63.295 148.32 67.602 151.548 69.664 C 163.013 76.988 169.858 89.431 169.858 102.956 C 169.858 116.48 163.013 128.924 151.548 136.247 C 148.32 138.307 147.365 142.613 149.41 145.869 C 151.288 148.858 155.502 150.236 158.964 148.021 C 174.456 138.128 183.703 121.283 183.703 102.956 Z  M 142.811 80.783 C 139.471 78.958 135.257 80.16 133.405 83.509 C 131.562 86.858 132.782 91.066 136.131 92.915 C 139.855 94.96 142.168 98.811 142.168 102.956 C 142.168 107.103 139.855 110.951 136.134 112.996 C 132.785 114.845 131.565 119.053 133.408 122.402 C 135.263 125.765 139.48 126.959 142.814 125.128 C 150.957 120.643 156.016 112.148 156.016 102.953 C 156.016 93.757 150.957 85.266 142.811 80.783 Z " fill="rgb(253,44,84)"/><path d=" M 100.63 44.293 L 74.968 69.949 L 45.53 69.949 C 41.705 69.949 38.607 73.047 38.607 76.872 L 38.607 118.407 C 38.607 122.228 41.705 125.329 45.53 125.329 L 74.968 125.329 L 100.63 150.986 C 104.965 155.321 112.447 152.275 112.447 146.091 L 112.447 49.187 C 112.447 42.997 104.959 39.963 100.63 44.293 Z  M 167.928 29.559 C 164.706 27.445 160.377 28.336 158.263 31.564 C 156.146 34.786 157.045 39.115 160.267 41.229 C 179.382 53.774 190.79 74.861 190.79 97.642 C 190.79 120.423 179.382 141.511 160.267 154.055 C 157.045 156.166 156.146 160.498 158.263 163.717 C 160.293 166.807 164.588 167.917 167.928 165.722 C 190.98 150.591 204.747 125.136 204.747 97.639 C 204.747 70.142 190.98 44.691 167.928 29.559 Z  M 177.057 97.639 C 177.057 79.315 167.81 62.467 152.318 52.574 C 149.09 50.514 144.81 51.472 142.765 54.725 C 140.72 57.979 141.675 62.285 144.902 64.348 C 156.368 71.671 163.212 84.114 163.212 97.639 C 163.212 111.164 156.368 123.607 144.902 130.931 C 141.675 132.99 140.72 137.296 142.765 140.553 C 144.643 143.541 148.857 144.92 152.318 142.705 C 167.81 132.811 177.057 115.966 177.057 97.639 Z  M 136.165 75.467 C 132.825 73.641 128.611 74.844 126.759 78.193 C 124.916 81.541 126.136 85.75 129.485 87.599 C 133.209 89.644 135.522 93.494 135.522 97.639 C 135.522 101.787 133.209 105.635 129.488 107.68 C 126.139 109.529 124.919 113.737 126.762 117.086 C 128.617 120.449 132.834 121.643 136.168 119.811 C 144.311 115.326 149.37 106.832 149.37 97.636 C 149.37 88.441 144.311 79.949 136.165 75.467 Z " fill="rgb(36,245,239)"/><path d=" M 103.288 46.951 L 77.626 72.607 L 48.188 72.607 C 44.363 72.607 41.265 75.705 41.265 79.53 L 41.265 121.065 C 41.265 124.887 44.363 127.987 48.188 127.987 L 77.626 127.987 L 103.288 153.644 C 107.623 157.979 115.105 154.933 115.105 148.749 L 115.105 51.846 C 115.105 45.656 107.618 42.621 103.288 46.951 Z  M 170.586 32.217 C 167.365 30.103 163.035 30.994 160.921 34.222 C 158.804 37.444 159.704 41.773 162.926 43.888 C 182.04 56.432 193.448 77.519 193.448 100.3 C 193.448 123.081 182.04 144.169 162.926 156.713 C 159.704 158.824 158.804 163.157 160.921 166.376 C 162.951 169.465 167.246 170.575 170.586 168.38 C 193.638 153.249 207.406 127.794 207.406 100.297 C 207.406 72.801 193.638 47.349 170.586 32.217 Z  M 179.716 100.297 C 179.716 81.973 170.468 65.125 154.976 55.232 C 151.749 53.172 147.468 54.13 145.423 57.384 C 143.378 60.637 144.333 64.944 147.56 67.006 C 159.026 74.329 165.87 86.773 165.87 100.297 C 165.87 113.822 159.026 126.265 147.56 133.589 C 144.333 135.648 143.378 139.955 145.423 143.211 C 147.301 146.199 151.515 147.578 154.976 145.363 C 170.468 135.47 179.716 118.625 179.716 100.297 Z  M 138.824 78.125 C 135.484 76.299 131.269 77.502 129.418 80.851 C 127.575 84.2 128.795 88.408 132.143 90.257 C 135.867 92.302 138.18 96.153 138.18 100.297 C 138.18 104.445 135.867 108.293 132.146 110.338 C 128.798 112.187 127.577 116.395 129.421 119.744 C 131.275 123.107 135.492 124.301 138.827 122.47 C 146.969 117.984 152.028 109.49 152.028 100.295 C 152.028 91.099 146.969 82.608 138.824 78.125 Z " fill="rgb(0,0,0)"/></g></g></g></svg>